<svg id="add_images" data-name="add images" xmlns="http://www.w3.org/2000/svg" width="24.493" height="29.051" viewBox="0 0 24.493 29.051">
  <path id="Path_1815" data-name="Path 1815" d="M272.924,17.4h7.19L271.5,8.785v7.19A1.43,1.43,0,0,0,272.924,17.4Zm0,0" transform="translate(-256.12 -8.287)" fill="#e6b568"/>
  <path id="Path_1816" data-name="Path 1816" d="M17.3,10.818a3.134,3.134,0,0,1-3.13-3.13V0H3.63A3.134,3.134,0,0,0,.5,3.13v22.79a3.134,3.134,0,0,0,3.13,3.13H21.863a3.134,3.134,0,0,0,3.13-3.13v-15.1ZM8.188,5.24a3.13,3.13,0,1,1-3.13,3.13,3.134,3.134,0,0,1,3.13-3.13Zm15.1,20.681a1.43,1.43,0,0,1-1.428,1.428H3.63A1.43,1.43,0,0,1,2.2,25.921V18.626l4.017-4.017a.851.851,0,0,1,1.2,0l3.956,3.956L16.7,13.242a.851.851,0,0,1,1.2,0l5.384,5.384Zm0,0" transform="translate(-0.5)" fill="#e6b568"/>
</svg>
